<svg width="47" height="49" viewBox="0 0 47 49" fill="none" xmlns="http://www.w3.org/2000/svg">
<path d="M46.4446 1.88362L46.4446 31.2414C46.4446 32.2817 45.607 33.125 44.5737 33.125C44.0775 33.125 43.6016 32.9265 43.2507 32.5733L14.0904 3.21555C13.3598 2.47995 13.3598 1.2873 14.0904 0.551701C14.4413 0.198453 14.9172 0 15.4134 0L44.5737 0C45.607 0 46.4446 0.843327 46.4446 1.88362Z" fill="url(#paint0_linear_1_6)"/>
<path fill-rule="evenodd" clip-rule="evenodd" d="M36.1039 13.2408L36.1039 42.5985C36.1039 43.6388 35.2663 44.4821 34.233 44.4821C33.7368 44.4821 33.2609 44.2837 32.91 43.9304L3.74974 14.5727C3.01909 13.8371 3.01909 12.6444 3.74974 11.9088C4.10061 11.5556 4.5765 11.3571 5.07271 11.3571L34.233 11.3571C35.2663 11.3571 36.1039 12.2005 36.1039 13.2408Z" fill="url(#paint1_linear_1_6)"/>
<path d="M33.2225 22.3993L13.996 41.6001C11.8124 43.7808 8.27961 43.7952 6.07832 41.6323C3.89481 39.4869 3.86391 35.9776 6.00931 33.7941C6.01624 33.7871 6.02319 33.78 6.03015 33.773L25.2561 14.4139L22.2267 11.3773L29.7835 11.3773L34.1527 11.3773C35.2573 11.3773 36.1527 12.2727 36.1527 13.3773L36.1527 17.6064V25.3365L33.2225 22.3993Z" fill="url(#paint2_linear_1_6)"/>
<mask id="mask0_1_6" style="mask-type:luminance" maskUnits="userSpaceOnUse" x="10" y="5" width="21" height="43">
<path d="M26.4957 14.8826L26.4776 42.0548C26.4755 45.1408 23.9876 47.6491 20.9017 47.6762C17.8407 47.7032 15.3374 45.2436 15.3104 42.1826C15.3104 42.1727 15.3103 42.1628 15.3103 42.1529L15.2161 14.8692L10.9268 14.8641L16.2703 9.52059L19.3597 6.43112C20.1408 5.65007 21.4071 5.65007 22.1881 6.43112L25.1786 9.42161L30.6446 14.8876L26.4957 14.8826Z" fill="white"/>
</mask>
<g mask="url(#mask0_1_6)">
<path opacity="0.353585" fill-rule="evenodd" clip-rule="evenodd" d="M17.6704 29.9233L36.2991 11.1684H20.8187C14.2494 20.4999 7.02763 25.2384 -0.846542 25.3838" fill="#6293D0"/>
</g>
<path d="M22.2065 33.3906L13.9679 41.6182C11.7817 43.8014 8.2448 43.8158 6.04092 41.6504C3.85485 39.5025 3.82392 35.9891 5.97184 33.803C5.97877 33.796 5.98573 33.7889 5.9927 33.7819L14.5246 25.1909L22.2065 33.3906Z" fill="url(#paint3_linear_1_6)"/>
<g opacity="0.426572">
<path fill-rule="evenodd" clip-rule="evenodd" d="M46.6779 32.3167C46.3244 32.6142 45.8534 32.7957 45.3362 32.7957C44.8092 32.7957 44.3038 32.6034 43.9312 32.2611L36.3415 25.2895V41.9748C36.3415 42.9828 35.4519 43.7999 34.3546 43.7999C33.8276 43.7999 33.3222 43.6076 32.9496 43.2654L22.0599 33.2626L14.3198 41.0276C11.9881 43.3669 8.20155 43.373 5.86233 41.0412C5.86006 41.039 5.85779 41.0367 5.85553 41.0345C5.39441 40.5733 5.02403 40.0558 4.7444 39.5041C5.84135 39.2494 7.06076 38.4174 8.40262 37.0082L46.6779 1.85025V32.3167Z" fill="url(#paint4_linear_1_6)"/>
</g>
<defs>
<linearGradient id="paint0_linear_1_6" x1="35.5988" y1="-3030.38" x2="2001.38" y2="-2076.86" gradientUnits="userSpaceOnUse">
<stop stop-color="#FFA0C5"/>
<stop offset="1" stop-color="#F82E69"/>
</linearGradient>
<linearGradient id="paint1_linear_1_6" x1="258.572" y1="-3268.02" x2="1359.9" y2="-2501.23" gradientUnits="userSpaceOnUse">
<stop stop-color="#B5C1FF"/>
<stop offset="1" stop-color="#778CFF"/>
</linearGradient>
<linearGradient id="paint2_linear_1_6" x1="9143.88" y1="-10924" x2="3003.47" y2="6384.48" gradientUnits="userSpaceOnUse">
<stop stop-color="#7B66BD"/>
<stop offset="1" stop-color="#261C56"/>
</linearGradient>
<linearGradient id="paint3_linear_1_6" x1="-2457.27" y1="3291.07" x2="59.1257" y2="903.562" gradientUnits="userSpaceOnUse">
<stop stop-color="#778CFF"/>
<stop offset="0.581665" stop-color="#AEBBFF"/>
<stop offset="1" stop-color="#778CFF"/>
</linearGradient>
<linearGradient id="paint4_linear_1_6" x1="3261.49" y1="3940.73" x2="2409.88" y2="1332.97" gradientUnits="userSpaceOnUse">
<stop stop-opacity="0"/>
<stop offset="1" stop-color="#322564"/>
</linearGradient>
</defs>
</svg>
